<svg width="28" height="28" viewBox="0 0 28 28" fill="none" xmlns="http://www.w3.org/2000/svg">
<path d="M13.9998 0.667969C6.6265 0.667969 0.666504 6.62797 0.666504 14.0013C0.666504 21.3746 6.6265 27.3346 13.9998 27.3346C21.3732 27.3346 27.3332 21.3746 27.3332 14.0013C27.3332 6.62797 21.3732 0.667969 13.9998 0.667969ZM13.9998 24.668C8.11984 24.668 3.33317 19.8813 3.33317 14.0013C3.33317 8.1213 8.11984 3.33464 13.9998 3.33464C19.8798 3.33464 24.6665 8.1213 24.6665 14.0013C24.6665 19.8813 19.8798 24.668 13.9998 24.668ZM18.7865 7.33464L13.9998 12.1213L9.21317 7.33464L7.33317 9.21464L12.1198 14.0013L7.33317 18.788L9.21317 20.668L13.9998 15.8813L18.7865 20.668L20.6665 18.788L15.8798 14.0013L20.6665 9.21464L18.7865 7.33464Z" fill="#323232"/>
</svg>
