<svg width="32" height="32" viewBox="0 0 32 32" fill="none" xmlns="http://www.w3.org/2000/svg">
<path d="M3.66666 6.0001C3.53415 5.99823 3.40259 6.02271 3.27962 6.07212C3.15665 6.12153 3.04473 6.1949 2.95036 6.28794C2.85599 6.38098 2.78105 6.49186 2.72991 6.61411C2.67876 6.73637 2.65242 6.86757 2.65242 7.0001C2.65242 7.13263 2.67876 7.26383 2.72991 7.38609C2.78105 7.50834 2.85599 7.61922 2.95036 7.71226C3.04473 7.8053 3.15665 7.87867 3.27962 7.92808C3.40259 7.97749 3.53415 8.00197 3.66666 8.0001H28.3333C28.4658 8.00197 28.5974 7.97749 28.7204 7.92808C28.8433 7.87867 28.9553 7.8053 29.0496 7.71226C29.144 7.61922 29.2189 7.50834 29.2701 7.38609C29.3212 7.26383 29.3476 7.13263 29.3476 7.0001C29.3476 6.86757 29.3212 6.73637 29.2701 6.61411C29.2189 6.49186 29.144 6.38098 29.0496 6.28794C28.9553 6.1949 28.8433 6.12153 28.7204 6.07212C28.5974 6.02271 28.4658 5.99823 28.3333 6.0001H3.66666ZM3.66666 15.0001C3.53415 14.9982 3.40259 15.0227 3.27962 15.0721C3.15665 15.1215 3.04473 15.1949 2.95036 15.2879C2.85599 15.381 2.78105 15.4919 2.72991 15.6141C2.67876 15.7364 2.65242 15.8676 2.65242 16.0001C2.65242 16.1326 2.67876 16.2638 2.72991 16.3861C2.78105 16.5083 2.85599 16.6192 2.95036 16.7123C3.04473 16.8053 3.15665 16.8787 3.27962 16.9281C3.40259 16.9775 3.53415 17.002 3.66666 17.0001H28.3333C28.4658 17.002 28.5974 16.9775 28.7204 16.9281C28.8433 16.8787 28.9553 16.8053 29.0496 16.7123C29.144 16.6192 29.2189 16.5083 29.2701 16.3861C29.3212 16.2638 29.3476 16.1326 29.3476 16.0001C29.3476 15.8676 29.3212 15.7364 29.2701 15.6141C29.2189 15.4919 29.144 15.381 29.0496 15.2879C28.9553 15.1949 28.8433 15.1215 28.7204 15.0721C28.5974 15.0227 28.4658 14.9982 28.3333 15.0001H3.66666ZM3.66666 24.0001C3.53415 23.9982 3.40259 24.0227 3.27962 24.0721C3.15665 24.1215 3.04473 24.1949 2.95036 24.2879C2.85599 24.381 2.78105 24.4919 2.72991 24.6141C2.67876 24.7364 2.65242 24.8676 2.65242 25.0001C2.65242 25.1326 2.67876 25.2638 2.72991 25.3861C2.78105 25.5083 2.85599 25.6192 2.95036 25.7123C3.04473 25.8053 3.15665 25.8787 3.27962 25.9281C3.40259 25.9775 3.53415 26.002 3.66666 26.0001H28.3333C28.4658 26.002 28.5974 25.9775 28.7204 25.9281C28.8433 25.8787 28.9553 25.8053 29.0496 25.7123C29.144 25.6192 29.2189 25.5083 29.2701 25.3861C29.3212 25.2638 29.3476 25.1326 29.3476 25.0001C29.3476 24.8676 29.3212 24.7364 29.2701 24.6141C29.2189 24.4919 29.144 24.381 29.0496 24.2879C28.9553 24.1949 28.8433 24.1215 28.7204 24.0721C28.5974 24.0227 28.4658 23.9982 28.3333 24.0001H3.66666Z" fill="#2B3D98"/>
</svg>
