<svg width="32" height="33" viewBox="0 0 32 33" fill="none" xmlns="http://www.w3.org/2000/svg">
<g clip-path="url(#clip0_1346_73947)">
<path d="M14.6667 11.0002V17.6668L20.3333 21.0268L21.36 19.3202L16.6667 16.5335V11.0002H14.6667ZM28 13.6668V4.3335L24.48 7.8535C22.32 5.68016 19.32 4.3335 16 4.3335C9.37333 4.3335 4 9.70683 4 16.3335C4 22.9602 9.37333 28.3335 16 28.3335C22.6267 28.3335 28 22.9602 28 16.3335H25.3333C25.3333 21.4802 21.1467 25.6668 16 25.6668C10.8533 25.6668 6.66667 21.4802 6.66667 16.3335C6.66667 11.1868 10.8533 7.00016 16 7.00016C18.5733 7.00016 20.9067 8.0535 22.6 9.7335L18.6667 13.6668H28Z" fill="#B7D5C6"/>
</g>
<defs>
<clipPath id="clip0_1346_73947">
<rect width="32" height="32" fill="white" transform="translate(0 0.333496)"/>
</clipPath>
</defs>
</svg>
