<?xml version="1.0" encoding="utf-8"?>
<svg width="96" height="76" viewBox="0 0 96 76" fill="none" xmlns="http://www.w3.org/2000/svg">
<path d="M48 0C27.0487 0 10 17.0487 10 38C10 58.9513 27.0487 76 48 76C68.9513 76 86 58.9513 86 38C86 17.0487 68.9513 0 48 0ZM48 6C65.7087 6 80 20.2914 80 38C80 55.7086 65.7087 70 48 70C30.2913 70 16 55.7086 16 38C16 20.2914 30.2913 6 48 6ZM6.01172 19.2617C5.91146 19.258 5.81107 19.2593 5.71094 19.2656C5.12239 19.2998 4.55696 19.5066 4.08525 19.8602C3.61354 20.2138 3.25646 20.6986 3.05859 21.2539C1.11935 26.4571 0 32.0917 0 38C0 43.9083 1.11935 49.5429 3.05859 54.7461C3.1915 55.1215 3.39783 55.4668 3.66555 55.7617C3.93327 56.0565 4.25703 56.2952 4.61793 56.4636C4.97884 56.6321 5.36967 56.727 5.76764 56.7428C6.16561 56.7587 6.56275 56.6951 6.9359 56.5559C7.30905 56.4166 7.65074 56.2045 7.94104 55.9318C8.23134 55.6591 8.46445 55.3313 8.62676 54.9676C8.78908 54.6039 8.87735 54.2115 8.88644 53.8134C8.89553 53.4152 8.82524 53.0192 8.67969 52.6484C6.97093 48.0636 6 43.1517 6 38C6 32.8483 6.97093 27.9364 8.67969 23.3516C8.85355 22.9067 8.91871 22.4268 8.86974 21.9517C8.82077 21.4766 8.65909 21.0201 8.39814 20.6201C8.1372 20.2201 7.78452 19.8881 7.36945 19.6519C6.95438 19.4156 6.4889 19.2819 6.01172 19.2617ZM90.1992 19.2617C89.7041 19.2479 89.2134 19.3568 88.7706 19.5788C88.3279 19.8007 87.947 20.1289 87.6619 20.5338C87.3768 20.9388 87.1964 21.4081 87.1368 21.8998C87.0772 22.3914 87.1403 22.8902 87.3203 23.3516C89.0291 27.9364 90 32.8483 90 38C90 43.1517 89.0291 48.0636 87.3203 52.6484C87.1748 53.0192 87.1045 53.4152 87.1136 53.8134C87.1227 54.2115 87.2109 54.6039 87.3732 54.9676C87.5356 55.3313 87.7687 55.6591 88.059 55.9318C88.3493 56.2045 88.691 56.4166 89.0641 56.5559C89.4372 56.6951 89.8344 56.7587 90.2324 56.7428C90.6303 56.727 91.0212 56.6321 91.3821 56.4636C91.743 56.2952 92.0667 56.0565 92.3344 55.7617C92.6022 55.4668 92.8085 55.1215 92.9414 54.7461C94.8806 49.5429 96 43.9083 96 38C96 32.0917 94.8806 26.4571 92.9414 21.2539C92.7384 20.6841 92.3679 20.189 91.8786 19.8335C91.3892 19.478 90.8038 19.2787 90.1992 19.2617ZM47.9531 19.957C47.1582 19.9694 46.4006 20.2969 45.8469 20.8675C45.2932 21.438 44.9886 22.205 45 23V41C44.9944 41.3975 45.0678 41.7922 45.2161 42.1611C45.3643 42.53 45.5844 42.8658 45.8635 43.1489C46.1427 43.432 46.4753 43.6568 46.842 43.8103C47.2088 43.9637 47.6024 44.0427 48 44.0427C48.3976 44.0427 48.7912 43.9637 49.158 43.8103C49.5247 43.6568 49.8573 43.432 50.1365 43.1489C50.4156 42.8658 50.6357 42.53 50.7839 42.1611C50.9322 41.7922 51.0056 41.3975 51 41V23C51.0058 22.5985 50.9309 22.1999 50.7797 21.8278C50.6286 21.4558 50.4043 21.1178 50.1202 20.8341C49.836 20.5503 49.4978 20.3265 49.1256 20.1758C48.7533 20.0252 48.3546 19.9508 47.9531 19.957ZM48 48C46.9391 48 45.9217 48.4214 45.1716 49.1716C44.4214 49.9217 44 50.9391 44 52C44 53.0609 44.4214 54.0783 45.1716 54.8284C45.9217 55.5786 46.9391 56 48 56C49.0609 56 50.0783 55.5786 50.8284 54.8284C51.5786 54.0783 52 53.0609 52 52C52 50.9391 51.5786 49.9217 50.8284 49.1716C50.0783 48.4214 49.0609 48 48 48Z" fill="#B3C0FF"/>
</svg>
