<svg width="22" height="22" viewBox="0 0 22 22" fill="none" xmlns="http://www.w3.org/2000/svg">
<path d="M10.9997 3.00016C12.4663 3.00016 13.6663 4.20016 13.6663 5.66683C13.6663 7.1335 12.4663 8.3335 10.9997 8.3335C9.53301 8.3335 8.33301 7.1335 8.33301 5.66683C8.33301 4.20016 9.53301 3.00016 10.9997 3.00016ZM10.9997 16.3335C14.5997 16.3335 18.733 18.0535 18.9997 19.0002H2.99967C3.30634 18.0402 7.41301 16.3335 10.9997 16.3335ZM10.9997 0.333496C8.05301 0.333496 5.66634 2.72016 5.66634 5.66683C5.66634 8.6135 8.05301 11.0002 10.9997 11.0002C13.9463 11.0002 16.333 8.6135 16.333 5.66683C16.333 2.72016 13.9463 0.333496 10.9997 0.333496ZM10.9997 13.6668C7.43968 13.6668 0.333008 15.4535 0.333008 19.0002V21.6668H21.6663V19.0002C21.6663 15.4535 14.5597 13.6668 10.9997 13.6668Z" fill="#B7D5C6"/>
</svg>
