<svg width="22" height="28" viewBox="0 0 22 28" fill="none" xmlns="http://www.w3.org/2000/svg">
<path d="M12.5599 3.33366L18.9999 9.77366V24.667H2.99992V3.33366H12.5599ZM13.6666 0.666992H2.99992C1.53325 0.666992 0.333252 1.86699 0.333252 3.33366V24.667C0.333252 26.1337 1.53325 27.3337 2.99992 27.3337H18.9999C20.4666 27.3337 21.6666 26.1337 21.6666 24.667V8.66699L13.6666 0.666992ZM14.9999 12.667H9.66659V14.0003H13.6666C14.3999 14.0003 14.9999 14.6003 14.9999 15.3337V19.3337C14.9999 20.067 14.3999 20.667 13.6666 20.667H12.3333V22.0003H9.66659V20.667H6.99992V18.0003H12.3333V16.667H8.33325C7.59992 16.667 6.99992 16.067 6.99992 15.3337V11.3337C6.99992 10.6003 7.59992 10.0003 8.33325 10.0003H9.66659V8.66699H12.3333V10.0003H14.9999V12.667Z" fill="#B7D5C6"/>
</svg>
