<svg width="32" height="32" viewBox="0 0 32 32" fill="none" xmlns="http://www.w3.org/2000/svg">
<g clip-path="url(#clip0_1192_90675)">
<path d="M25.3337 10.6664H24.0003V3.99976H8.00033V10.6664H6.66699C4.45366 10.6664 2.66699 12.4531 2.66699 14.6664V22.6664H8.00033V27.9998H24.0003V22.6664H29.3337V14.6664C29.3337 12.4531 27.547 10.6664 25.3337 10.6664ZM10.667 6.66642H21.3337V10.6664H10.667V6.66642ZM21.3337 22.6664V25.3331H10.667V19.9998H21.3337V22.6664ZM24.0003 19.9998V17.3331H8.00033V19.9998H5.33366V14.6664C5.33366 13.9331 5.93366 13.3331 6.66699 13.3331H25.3337C26.067 13.3331 26.667 13.9331 26.667 14.6664V19.9998H24.0003Z" fill="white"/>
<path d="M23.9993 16.6659C24.7357 16.6659 25.3327 16.069 25.3327 15.3326C25.3327 14.5962 24.7357 13.9993 23.9993 13.9993C23.263 13.9993 22.666 14.5962 22.666 15.3326C22.666 16.069 23.263 16.6659 23.9993 16.6659Z" fill="white"/>
</g>
<defs>
<clipPath id="clip0_1192_90675">
<rect width="32" height="32" fill="white"/>
</clipPath>
</defs>
</svg>
