<svg width="32" height="33" viewBox="0 0 32 33" fill="none" xmlns="http://www.w3.org/2000/svg">
<g clip-path="url(#clip0_1346_73974)">
<path d="M26 5L24 3L22 5L20 3L18 5L16 3L14 5L12 3L10 5L8 3L6 5L4 3V29.6667L6 27.6667L8 29.6667L10 27.6667L12 29.6667L14 27.6667L16 29.6667L18 27.6667L20 29.6667L22 27.6667L24 29.6667L26 27.6667L28 29.6667V3L26 5ZM25.3333 25.7867H6.66667V6.88H25.3333V25.7867ZM8 20.3333H24V23H8V20.3333ZM8 15H24V17.6667H8V15ZM8 9.66667H24V12.3333H8V9.66667Z" fill="#B7D5C6"/>
</g>
<defs>
<clipPath id="clip0_1346_73974">
<rect width="32" height="32" fill="white" transform="translate(0 0.333496)"/>
</clipPath>
</defs>
</svg>
