<svg width="34" height="30" viewBox="0 0 34 30" fill="none" xmlns="http://www.w3.org/2000/svg">
<path d="M33.4995 9.81667L31.7495 2.53333C31.3829 1.03333 30.0829 0 28.5662 0H5.41619C3.91619 0 2.59952 1.05 2.24952 2.53333L0.499523 9.81667C0.0995227 11.5167 0.46619 13.25 1.53286 14.6167C1.66619 14.8 1.84952 14.9333 1.99952 15.1V26.6667C1.99952 28.5 3.49952 30 5.33286 30H28.6662C30.4995 30 31.9995 28.5 31.9995 26.6667V15.1C32.1495 14.95 32.3329 14.8 32.4662 14.6333C33.5329 13.2667 33.9162 11.5167 33.4995 9.81667ZM28.5162 3.31667L30.2662 10.6C30.4329 11.3 30.2829 12 29.8495 12.55C29.6162 12.85 29.1162 13.3333 28.2829 13.3333C27.2662 13.3333 26.3829 12.5167 26.2662 11.4333L25.2995 3.33333L28.5162 3.31667ZM18.6662 3.33333H21.9329L22.8329 10.8667C22.9162 11.5167 22.7162 12.1667 22.2829 12.65C21.9162 13.0833 21.3829 13.3333 20.6995 13.3333C19.5829 13.3333 18.6662 12.35 18.6662 11.15V3.33333ZM11.1495 10.8667L12.0662 3.33333H15.3329V11.15C15.3329 12.35 14.4162 13.3333 13.1829 13.3333C12.6162 13.3333 12.0995 13.0833 11.6995 12.65C11.2829 12.1667 11.0829 11.5167 11.1495 10.8667ZM3.73286 10.6L5.41619 3.33333H8.69952L7.73286 11.4333C7.59952 12.5167 6.73286 13.3333 5.71619 13.3333C4.89952 13.3333 4.38286 12.85 4.16619 12.55C3.71619 12.0167 3.56619 11.3 3.73286 10.6ZM5.33286 26.6667V16.6167C5.46619 16.6333 5.58286 16.6667 5.71619 16.6667C7.16619 16.6667 8.48286 16.0667 9.44952 15.0833C10.4495 16.0833 11.7829 16.6667 13.2995 16.6667C14.7495 16.6667 16.0495 16.0667 17.0162 15.1167C17.9995 16.0667 19.3329 16.6667 20.8329 16.6667C22.2329 16.6667 23.5662 16.0833 24.5662 15.0833C25.5329 16.0667 26.8495 16.6667 28.2995 16.6667C28.4329 16.6667 28.5495 16.6333 28.6829 16.6167V26.6667H5.33286Z" fill="#00964C"/>
</svg>
